<?xml version="1.0" encoding="UTF-8"?>
<!DOCTYPE svg PUBLIC "-//W3C//DTD SVG 1.1//EN" "http://www.w3.org/Graphics/SVG/1.1/DTD/svg11.dtd">
<!-- Creator: CorelDRAW X7 -->
<svg xmlns="http://www.w3.org/2000/svg" xml:space="preserve" width="30mm" height="30mm" version="1.1" style="shape-rendering:geometricPrecision; text-rendering:geometricPrecision; image-rendering:optimizeQuality; fill-rule:evenodd; clip-rule:evenodd"
viewBox="0 0 3000 3000"
 xmlns:xlink="http://www.w3.org/1999/xlink">
 <defs>
  <style type="text/css">
   <![CDATA[
    .str1 {stroke:#009846;stroke-width:100}
    .str0 {stroke:#009846;stroke-width:200}
    .str2 {stroke:#009846;stroke-width:150}
    .fil0 {fill:none}
    .fil1 {fill:#009846}
   ]]>
  </style>
 </defs>
 <g id="Warstwa_x0020_1">
  <metadata id="CorelCorpID_0Corel-Layer"/>
  <g id="_327049792">
   <polygon class="fil0 str0" points="263,151 2006,151 2006,2747 263,2747 "/>
   <rect class="fil1 str1" x="622" y="574" width="1025" height="539"/>
   <rect class="fil1" x="72" y="2648" width="2125" height="320"/>
   <polygon class="fil1" points="1135,1523 1230,1775 1496,1789 1288,1959 1358,2220 1135,2072 911,2220 981,1959 774,1789 1039,1775 "/>
   <g>
    <path class="fil0 str2" d="M2015 1314c0,-318 314,-511 309,96 -2,140 -158,670 -30,844 113,154 172,185 331,126 141,-52 216,-263 222,-470 10,-325 -36,-589 -109,-882 -15,-60 -105,-392 -124,-418"/>
    <rect class="fil1" transform="matrix(0.492845 0.774627 -0.814655 0.46863 2501.53 278.219)" width="463" height="192" rx="96" ry="96"/>
    <rect class="fil1" transform="matrix(0.264842 0.262445 -0.437773 0.158772 2551.61 642.212)" width="463" height="192" rx="96" ry="96"/>
   </g>
  </g>
 </g>
</svg>
